<?xml version="1.0" encoding="UTF-8" standalone="no"?>
<!-- Created with Inkscape (http://www.inkscape.org/) -->

<svg
   xmlns:dc="http://purl.org/dc/elements/1.1/"
   xmlns:cc="http://creativecommons.org/ns#"
   xmlns:rdf="http://www.w3.org/1999/02/22-rdf-syntax-ns#"
   xmlns:svg="http://www.w3.org/2000/svg"
   xmlns="http://www.w3.org/2000/svg"
   xmlns:xlink="http://www.w3.org/1999/xlink"
   xmlns:sodipodi="http://sodipodi.sourceforge.net/DTD/sodipodi-0.dtd"
   xmlns:inkscape="http://www.inkscape.org/namespaces/inkscape"
   width="800"
   height="600"
   id="svg2"
   version="1.1"
   inkscape:version="0.48.0 r9654"
   sodipodi:docname="bg.svg"
   inkscape:export-filename="/home/matz/src/NoisyHunter/game/gfx/bg.png"
   inkscape:export-xdpi="90"
   inkscape:export-ydpi="90">
  <defs
     id="defs4">
    <linearGradient
       id="linearGradient5324">
      <stop
         style="stop-color:#0e0e0e;stop-opacity:1;"
         offset="0"
         id="stop5326" />
      <stop
         style="stop-color:#363636;stop-opacity:1;"
         offset="1"
         id="stop5328" />
    </linearGradient>
    <inkscape:path-effect
       pattern-nodetypes="cccccccccccccccccc"
       fuse_tolerance="0"
       vertical_pattern="false"
       prop_units="false"
       tang_offset="0"
       normal_offset="0"
       spacing="0"
       scale_y_rel="false"
       prop_scale="1"
       copytype="single_stretched"
       pattern="m 157.12056,825.87541 -0.20921,26.63163 16.58087,7.24615 -4.5557,-8.47116 15.36945,7.6153 -7.6837,-8.09721 11.42456,3.21504 -5.5159,-4.63742 15.13016,-1.46189 -14.14629,-2.28673 24.01186,-7.17756 -20.97127,-2.40565 14.57733,-1.66367 -26.69271,-0.66792 12.1193,-3.93979 -9.55056,1.55249 3.74964,-6.04477 z"
       is_visible="true"
       id="path-effect5322"
       effect="skeletal" />
    <inkscape:path-effect
       pattern-nodetypes="ccccccccccccccccc"
       fuse_tolerance="0"
       vertical_pattern="false"
       prop_units="false"
       tang_offset="0"
       normal_offset="0"
       spacing="0"
       scale_y_rel="false"
       prop_scale="1"
       copytype="single_stretched"
       pattern="m 254.28571,957.00503 1.78571,17.14286 10.07132,4.14874 -3.27259,-3.16746 10.65101,1.53729 -6.16383,-4.19391 12.98899,-1.92815 -9.18963,-1.48778 9.49667,-1.53102 3.98949,-3.02056 -12.24393,-2.3248 6.40289,-1.65045 -10.92218,-0.67462 3.59586,-5.39555 -11.24862,1.66566 5.05364,-8.92346 z"
       is_visible="true"
       id="path-effect5320"
       effect="skeletal" />
    <inkscape:path-effect
       is_visible="true"
       id="path-effect5318"
       effect="spiro" />
    <inkscape:path-effect
       pattern-nodetypes="cccccccccccccccccc"
       fuse_tolerance="0"
       vertical_pattern="false"
       prop_units="false"
       tang_offset="0"
       normal_offset="0"
       spacing="0"
       scale_y_rel="false"
       prop_scale="1"
       copytype="single_stretched"
       pattern="m 22.857141,952.36218 0,10 10.51086,8.20232 -3.82919,-6.64243 5.55876,1.29774 -4.79479,-2.73692 11.69802,8.46336 -3.91577,-8.24421 8.63872,4.71428 -3.78511,-4.72857 5.82358,0.0944 -7.11462,-3.08501 16.46336,-2.33497 -19.76324,-2.80299 15.52383,-4.87971 -17.23943,1.49118 5.05804,-4.4616 z"
       is_visible="true"
       id="path-effect5316"
       effect="skeletal" />
    <inkscape:path-effect
       is_visible="true"
       id="path-effect5314"
       effect="spiro" />
    <inkscape:path-effect
       pattern-nodetypes="ccccccccccccccc"
       fuse_tolerance="0"
       vertical_pattern="false"
       prop_units="false"
       tang_offset="0"
       normal_offset="0"
       spacing="0"
       scale_y_rel="false"
       prop_scale="1"
       copytype="single_stretched"
       pattern="m 112.03517,835.11907 0,10 21.79376,1.97602 -10.10607,-3.56892 18.20277,2.41982 -6.16683,-4.06018 9.25734,-1.26167 -3.29911,-1.62732 -7.42913,-1.76256 4.36172,-2.1786 -19.73171,1.21225 8.79111,-2.99703 -11.00882,1.29811 6.31179,-3.29711 z"
       is_visible="true"
       id="path-effect5312"
       effect="skeletal" />
    <inkscape:path-effect
       is_visible="true"
       id="path-effect5310"
       effect="spiro" />
    <inkscape:path-effect
       effect="skeletal"
       id="path-effect4913"
       is_visible="true"
       pattern="m 123.21429,822.71932 -5.35714,4.64286 30.02392,5.93628 -15.70933,-5.53305 27.11454,4.93381 -6.77354,-4.36083 16.05869,0.45236 -18.52631,-2.4799 9.60883,-1.53155 -22.61538,-0.20949 13.90417,-2.31766 -21.65273,0.36481 7.14346,-1.39248 z"
       copytype="single_stretched"
       prop_scale="1"
       scale_y_rel="false"
       spacing="0"
       normal_offset="0"
       tang_offset="0"
       prop_units="false"
       vertical_pattern="false"
       fuse_tolerance="0"
       pattern-nodetypes="cccccccccccccc" />
    <inkscape:path-effect
       effect="spiro"
       id="path-effect4911"
       is_visible="true" />
    <inkscape:path-effect
       effect="spiro"
       id="path-effect4907"
       is_visible="true" />
    <inkscape:path-effect
       effect="skeletal"
       id="path-effect4905"
       is_visible="true"
       pattern="m 268.61317,1001.9762 -1.78571,7.1428 34.57365,3.315 -24.27829,-3.7549 26.78997,1.8643 -6.43615,-2.6875 12.92225,-0.5226 -11.13298,-1.2518 4.38641,-2.5376 -24.22195,-0.119 18.82243,-2.7789 z"
       copytype="single_stretched"
       prop_scale="1"
       scale_y_rel="false"
       spacing="0"
       normal_offset="0"
       tang_offset="0"
       prop_units="false"
       vertical_pattern="false"
       fuse_tolerance="0"
       pattern-nodetypes="cccccccccccc" />
    <inkscape:path-effect
       effect="skeletal"
       id="path-effect4901"
       is_visible="true"
       pattern="m 75.323051,1019.3763 4.54569,6.9696 15.47038,4.9121 -4.53985,-4.5062 15.249519,6.0041 -6.054579,-5.1163 12.610499,1.2176 -6.61159,-4.3494 11.14974,-1.6467 -9.53037,-1.1493 5.04865,-5.0332 -19.288249,3.3161 10.195649,-5.3262 z"
       copytype="single_stretched"
       prop_scale="1"
       scale_y_rel="false"
       spacing="0"
       normal_offset="0"
       tang_offset="0"
       prop_units="false"
       vertical_pattern="false"
       fuse_tolerance="0"
       pattern-nodetypes="cccccccccccccc" />
    <inkscape:path-effect
       effect="spiro"
       id="path-effect4899"
       is_visible="false" />
    <inkscape:path-effect
       effect="skeletal"
       id="path-effect4895"
       is_visible="true"
       pattern="m 254.28571,955.57646 1.78571,17.14286 10.07132,4.14874 -3.27259,-3.16746 10.65101,1.53729 -6.16383,-4.19391 12.98899,-1.92815 -9.18963,-1.48778 9.49667,-1.53102 3.98949,-3.02056 -12.24393,-2.3248 6.40289,-1.65045 -10.92218,-0.67462 3.59586,-5.39555 -11.24862,1.66566 5.05364,-8.92346 z"
       copytype="single_stretched"
       prop_scale="1"
       scale_y_rel="false"
       spacing="0"
       normal_offset="0"
       tang_offset="0"
       prop_units="false"
       vertical_pattern="false"
       fuse_tolerance="0"
       pattern-nodetypes="ccccccccccccccccc" />
    <inkscape:path-effect
       effect="spiro"
       id="path-effect4893"
       is_visible="true" />
    <inkscape:path-effect
       effect="skeletal"
       id="path-effect4889"
       is_visible="true"
       pattern="m 112.03517,833.6905 0,10 21.79376,1.97602 -10.10607,-3.56892 18.20277,2.41982 -6.16683,-4.06018 9.25734,-1.26167 -3.29911,-1.62732 -7.42913,-1.76256 4.36172,-2.1786 -19.73171,1.21225 8.79111,-2.99703 -11.00882,1.29811 6.31179,-3.29711 z"
       copytype="single_stretched"
       prop_scale="1"
       scale_y_rel="false"
       spacing="0"
       normal_offset="0"
       tang_offset="0"
       prop_units="false"
       vertical_pattern="false"
       fuse_tolerance="0"
       pattern-nodetypes="ccccccccccccccc" />
    <inkscape:path-effect
       effect="spiro"
       id="path-effect4887"
       is_visible="true" />
    <inkscape:path-effect
       effect="skeletal"
       id="path-effect4883"
       is_visible="true"
       pattern="m 22.857143,498.57143 0,10 10.510856,8.20232 -3.829184,-6.64243 5.558758,1.29774 -4.794795,-2.73692 11.698026,8.46336 -3.915772,-8.24421 8.638721,4.71428 -3.785107,-4.72857 5.823577,0.0944 -7.114621,-3.08501 16.463355,-2.33497 -19.763236,-2.80299 15.523834,-4.87971 -17.239431,1.49118 5.058036,-4.4616 z"
       copytype="single_stretched"
       prop_scale="1"
       scale_y_rel="false"
       spacing="0"
       normal_offset="0"
       tang_offset="0"
       prop_units="false"
       vertical_pattern="false"
       fuse_tolerance="0"
       pattern-nodetypes="cccccccccccccccccc" />
    <inkscape:path-effect
       effect="spiro"
       id="path-effect4881"
       is_visible="true" />
    <inkscape:path-effect
       effect="skeletal"
       id="path-effect4101"
       is_visible="true"
       pattern="m 157.12056,372.08466 -0.20921,26.63163 16.58087,7.24615 -4.5557,-8.47116 15.36945,7.6153 -7.6837,-8.09721 11.42456,3.21504 -5.5159,-4.63742 15.13016,-1.46189 -14.14629,-2.28673 24.01186,-7.17756 -20.97127,-2.40565 14.57733,-1.66367 -26.69271,-0.66792 12.1193,-3.93979 -9.55056,1.55249 3.74964,-6.04477 z"
       copytype="single_stretched"
       prop_scale="1"
       scale_y_rel="false"
       spacing="0"
       normal_offset="0"
       tang_offset="0"
       prop_units="false"
       vertical_pattern="false"
       fuse_tolerance="0"
       pattern-nodetypes="cccccccccccccccccc" />
    <filter
       inkscape:collect="always"
       id="filter5095">
      <feGaussianBlur
         inkscape:collect="always"
         stdDeviation="8.2979642"
         id="feGaussianBlur5097" />
    </filter>
    <filter
       inkscape:collect="always"
       id="filter5099"
       x="-0.17501654"
       width="1.3500331"
       y="-0.14045603"
       height="1.2809121">
      <feGaussianBlur
         inkscape:collect="always"
         stdDeviation="8.2979642"
         id="feGaussianBlur5101" />
    </filter>
    <filter
       inkscape:collect="always"
       id="filter5103"
       x="-0.31730461"
       width="1.6346092"
       y="-0.25356597"
       height="1.5071319">
      <feGaussianBlur
         inkscape:collect="always"
         stdDeviation="8.2979642"
         id="feGaussianBlur5105" />
    </filter>
    <filter
       inkscape:collect="always"
       id="filter5107"
       x="-0.13597396"
       width="1.2719479"
       y="-0.13946277"
       height="1.2789255">
      <feGaussianBlur
         inkscape:collect="always"
         stdDeviation="8.2979642"
         id="feGaussianBlur5109" />
    </filter>
    <filter
       inkscape:collect="always"
       id="filter5179">
      <feGaussianBlur
         inkscape:collect="always"
         stdDeviation="0.55319761"
         id="feGaussianBlur5181" />
    </filter>
    <filter
       inkscape:collect="always"
       id="filter5183">
      <feGaussianBlur
         inkscape:collect="always"
         stdDeviation="0.55319761"
         id="feGaussianBlur5185" />
    </filter>
    <filter
       inkscape:collect="always"
       id="filter5187">
      <feGaussianBlur
         inkscape:collect="always"
         stdDeviation="0.55319761"
         id="feGaussianBlur5189" />
    </filter>
    <filter
       inkscape:collect="always"
       id="filter5191">
      <feGaussianBlur
         inkscape:collect="always"
         stdDeviation="0.55319761"
         id="feGaussianBlur5193" />
    </filter>
    <filter
       inkscape:collect="always"
       id="filter5231">
      <feGaussianBlur
         inkscape:collect="always"
         stdDeviation="0.4124954"
         id="feGaussianBlur5233" />
    </filter>
    <filter
       inkscape:collect="always"
       id="filter5235">
      <feGaussianBlur
         inkscape:collect="always"
         stdDeviation="0.4124954"
         id="feGaussianBlur5237" />
    </filter>
    <filter
       inkscape:collect="always"
       id="filter5239">
      <feGaussianBlur
         inkscape:collect="always"
         stdDeviation="0.4124954"
         id="feGaussianBlur5241" />
    </filter>
    <linearGradient
       inkscape:collect="always"
       xlink:href="#linearGradient5324"
       id="linearGradient5330"
       x1="4.2856922"
       y1="1055.2194"
       x2="798.57141"
       y2="450.93359"
       gradientUnits="userSpaceOnUse" />
  </defs>
  <sodipodi:namedview
     id="base"
     pagecolor="#ffffff"
     bordercolor="#666666"
     borderopacity="1.0"
     inkscape:pageopacity="0.0"
     inkscape:pageshadow="2"
     inkscape:zoom="0.7"
     inkscape:cx="741.78172"
     inkscape:cy="241.21282"
     inkscape:document-units="px"
     inkscape:current-layer="layer1"
     showgrid="false"
     inkscape:showpageshadow="false"
     showguides="true"
     inkscape:guide-bbox="true"
     inkscape:window-width="1440"
     inkscape:window-height="843"
     inkscape:window-x="-2"
     inkscape:window-y="-3"
     inkscape:window-maximized="1" />
  <metadata
     id="metadata7">
    <rdf:RDF>
      <cc:Work
         rdf:about="">
        <dc:format>image/svg+xml</dc:format>
        <dc:type
           rdf:resource="http://purl.org/dc/dcmitype/StillImage" />
        <dc:title></dc:title>
      </cc:Work>
    </rdf:RDF>
  </metadata>
  <g
     inkscape:label="Ebene 1"
     inkscape:groupmode="layer"
     id="layer1"
     transform="translate(0,-452.36218)">
    <rect
       style="fill:url(#linearGradient5330);fill-opacity:1;fill-rule:nonzero;stroke:none"
       id="rect5298"
       width="800"
       height="602.85712"
       x="-2.6597381e-05"
       y="449.50504" />
    <path
       sodipodi:nodetypes="cssssc"
       transform="translate(0,452.36218)"
       inkscape:connector-curvature="0"
       inkscape:original-d="m 3.5714285,611.42857 c 0,0 96.4285715,-131.42857 157.8571415,-155.71428 61.42857,-24.28572 170,-28.57143 202.85714,-22.85715 32.85715,5.71429 110,15.71429 155.71429,7.14286 45.71429,-8.57143 117.14286,-52.85714 167.14286,-54.28571 C 737.14286,384.28571 800,374.28571 800,374.28571"
       inkscape:path-effect="#path-effect4101"
       id="path5055"
       d="m -7.5848297,598.54303 c 3.1096044,3.08795 6.2266536,6.16741 9.35296,9.23611 1e-7,0 3e-7,0 5e-7,0 2.4336649,2.3888 4.8722571,4.77201 7.3225675,7.14118 3e-7,0 6e-7,0 9e-7,0 4e-7,0 7e-7,0 1e-6,0 0.6263874,0.60657 1.2536848,1.21202 1.8824128,1.81575 0.159487,0.15315 0.319065,0.30618 0.47875,0.4591 0.05602,0.0501 0.112043,0.1001 0.168084,0.15013 0.0044,-0.006 0.0088,-0.0111 0.01317,-0.0166 0.01742,-0.0224 0.03489,-0.0449 0.05241,-0.0674 0.06906,-0.0888 0.138818,-0.1783 0.209236,-0.26859 0.272906,-0.34976 0.548755,-0.70171 0.827171,-1.05616 1.065766,-1.35682 2.142144,-2.71344 3.22647,-4.07212 3e-6,-10e-6 6e-6,-10e-6 9e-6,-2e-5 3.956018,-4.95692 7.971079,-9.87678 12.030724,-14.77102 1e-6,-10e-6 3e-6,-10e-6 4e-6,-10e-6 2e-6,0 3e-6,0 5e-6,-1e-5 13.142129,-15.84242 26.667304,-31.32219 40.649422,-46.31849 3e-6,0 6e-6,0 9e-6,-10e-6 16.510965,-17.69369 33.481248,-34.69972 51.588398,-49.97027 8.26416,-6.96306 16.63655,-13.49807 25.31412,-19.16897 0,-1e-5 0,-1e-5 1e-5,-1e-5 7.33917,-4.74074 14.4913,-8.87827 21.64671,-11.37908 15.9013,-5.83455 32.9337,-9.48989 50.4661,-12.44289 2.60793,-0.43326 5.22098,-0.84426 7.83878,-1.23404 -2.65676,0.16798 -5.31237,0.35781 -7.96672,0.57061 0,0 0,0 0,0 -17.84077,1.47435 -35.35115,3.67771 -52.2505,8.26921 -4.42559,1.12297 -8.86596,2.76684 -13.31095,4.74394 4.23773,-2.32967 8.51419,-4.35007 12.8601,-5.88431 16.47204,-5.97446 33.89341,-9.67772 51.64741,-12.59416 0,0 0,0 1e-5,0 19.21891,-3.12925 38.65991,-5.06504 58.19443,-6.19969 0,0 10e-6,0 10e-6,0 17.62632,-1.01717 35.21705,-1.38496 52.6897,-0.8432 10e-6,0 10e-6,0 2e-5,0 6.90853,0.21574 13.72208,0.56564 20.41225,1.18245 5.00902,0.47501 9.68978,0.99751 13.94007,1.90909 14.92345,3.02803 29.94343,5.57753 45.02431,7.68128 -15.02783,-2.58162 -29.96659,-5.60583 -44.77719,-9.10225 -4.30614,-1.09109 -9.04072,-1.79097 -14.06784,-2.43425 0,0 0,0 -10e-6,0 -6.72728,-0.84827 -13.5837,-1.42906 -20.52786,-1.8735 -10e-6,0 -10e-6,0 -10e-6,0 -16.69915,-1.06571 -33.54727,-1.30622 -50.45138,-0.9402 16.84071,-1.1256 33.67973,-1.6496 50.45462,-1.34641 6.97578,0.12707 13.89119,0.39215 20.7228,0.92862 5.0887,0.40874 9.9667,0.88878 14.5447,1.78439 24.44246,4.6555 49.12669,8.01824 73.89937,10.24007 0,0 10e-6,0 10e-6,0 12.06915,1.08644 24.23788,1.87245 36.49304,2.15016 -12.25254,-0.66354 -24.38625,-1.83514 -36.40805,-3.30467 -19.99092,-2.43861 -39.87456,-5.62112 -59.56126,-9.62074 19.85009,2.93532 39.80822,5.03978 59.79844,6.39914 14.67182,1.00089 29.43514,1.55637 44.2414,1.29081 13.24074,-0.22487 26.69198,-1.06605 40.03393,-3.62576 13.80378,-2.69351 26.80868,-7.45164 39.35976,-12.41139 14.7676,-5.80879 29.18897,-12.16001 43.61632,-18.21662 9.77162,-4.09804 19.53341,-8.10242 29.38114,-11.71058 -9.90143,3.45893 -19.72834,7.31804 -29.56287,11.27073 -14.52208,5.84192 -29.0373,11.9781 -43.86014,17.55636 0,0 -10e-6,10e-6 -10e-6,10e-6 -12.60868,4.76252 -25.60897,9.30885 -39.26224,11.76194 -13.2257,2.34428 -26.56099,2.9759 -39.73567,3.01056 0,0 -1e-5,0 -1e-5,0 -14.72084,0.0478 -29.39476,-0.72322 -43.99006,-1.93553 -14.21431,-1.1791 -28.39883,-2.73582 -42.52449,-4.70019 14.17424,1.58947 28.3857,2.76844 42.60776,3.56919 14.60103,0.82331 29.24756,1.20427 43.87784,0.76874 10e-6,0 10e-6,0 2e-5,0 13.10371,-0.38691 26.27288,-1.35522 39.14888,-3.99654 0,0 10e-6,0 2e-5,-1e-5 13.23577,-2.72193 25.86098,-7.53689 38.28623,-12.59287 14.56207,-5.92431 28.86414,-12.42565 43.288,-18.67886 14.50563,-6.2893 29.12315,-12.4123 44.20255,-17.38447 13.24085,-4.37411 26.95797,-7.99977 41.13214,-8.66076 10e-6,0 2e-5,0 2e-5,0 25.02205,-1.14744 49.93426,-4.05865 74.7831,-7.52377 12.5166,-1.94133 25.02925,-3.8821 37.53796,-5.82231 0.19869,1.34043 0.39743,2.68105 0.59621,4.02189 -0.19878,-1.34084 -0.39752,-2.68146 -0.59621,-4.02188 -12.55317,1.64026 -25.10482,3.28033 -37.65495,4.92018 -24.91039,2.8663 -49.83834,5.17373 -74.7436,5.71357 -14.57006,0.36076 -28.68102,3.70653 -42.15517,7.83066 -15.37507,4.67272 -30.2661,10.4917 -44.95137,16.45102 -14.61985,5.92716 -29.04356,12.07265 -43.59248,17.58703 -12.46695,4.70362 -24.84469,9.11106 -37.40983,11.34781 -12.34098,2.24175 -25.09093,2.85124 -37.97064,2.94171 -11.05967,0.0666 -22.14611,-0.34786 -33.24338,-1.07048 11.10593,0.5742 22.19279,0.83978 33.23776,0.62455 12.86461,-0.26411 25.57185,-1.04484 37.79857,-3.44348 12.43094,-2.38741 24.66325,-6.93996 37.04767,-11.79562 10e-6,0 10e-6,0 10e-6,0 14.43668,-5.69327 28.75938,-12.02214 43.32287,-18.15063 14.62093,-6.1609 29.49691,-12.19728 44.9459,-17.11505 13.51948,-4.34921 27.84146,-7.9212 42.8759,-8.50402 0.94218,-0.0329 1.88439,-0.0684 2.82664,-0.10639 -0.94251,0.0303 -1.88495,0.0581 -2.8273,0.0833 -15.04092,0.47145 -29.41587,3.93605 -42.9815,8.18507 -15.50442,4.80232 -30.44715,10.7273 -45.12202,16.77367 -14.61977,6.01491 -28.98965,12.22658 -43.44406,17.79082 -12.40947,4.74507 -24.61088,9.17542 -36.90988,11.42145 -12.12278,2.27611 -24.73991,2.94119 -37.55493,3.10379 -14.25825,0.16173 -28.58892,-0.48337 -42.95139,-1.55878 -1e-5,0 -2e-5,-1e-5 -2e-5,-1e-5 -24.20716,-1.81933 -48.31714,-4.7434 -72.18372,-8.93052 -5.67016,-0.98236 -11.22098,-1.46273 -16.57862,-1.7886 -1e-5,0 -2e-5,0 -3e-5,0 -7.313,-0.4571 -14.58744,-0.62802 -21.80586,-0.64689 -18.25335,-0.0501 -36.4626,0.83431 -54.5669,2.38818 -11.80326,1.00992 -23.60511,2.31532 -35.37318,3.99322 11.73432,-1.91229 23.51717,-3.45427 35.3115,-4.70099 18.09015,-1.91751 36.31544,-3.16737 54.63113,-3.48089 0,0 0,0 1e-5,0 7.24316,-0.1251 14.55956,-0.0968 21.93989,0.22004 5.39671,0.21934 11.0406,0.60334 16.87893,1.50391 10e-6,0 10e-6,0 10e-6,0 23.86292,3.68265 47.92292,6.09834 72.0434,7.41423 3.2951,0.17828 6.58573,0.33384 9.8711,0.46211 -3.28354,-0.15976 -6.57181,-0.34678 -9.86415,-0.55648 -24.10068,-1.54556 -48.11959,-4.18931 -71.91567,-8.09432 -5.87614,-0.95608 -11.54913,-1.3933 -16.95645,-1.6615 0,0 0,0 -10e-6,0 -7.40075,-0.38475 -14.73693,-0.48049 -21.99546,-0.42189 -15.17382,0.11988 -30.29391,0.88062 -45.33077,2.13136 14.94526,-2.49111 30.05456,-4.49834 45.33606,-5.86235 6.9811,-0.62464 14.07664,-1.10611 21.3046,-1.32342 -7.19207,-0.40359 -14.29745,-0.54543 -21.30196,-0.54245 -18.54638,0.003 -37.00128,0.95033 -55.30617,2.57583 -20.30719,1.79285 -40.65857,4.463 -60.89142,8.38826 -18.58511,3.56697 -37.50018,8.28775 -56.00028,15.58006 -10.44758,4.2255 -19.63611,9.7429 -27.83708,15.5401 -9.90553,6.92132 -19.0686,14.46112 -27.71971,22.20169 -6e-6,0 -1.1e-5,0 -1.6e-5,1e-5 -18.954495,16.9425 -36.273184,35.22816 -52.712986,53.86948 -5e-6,0 -1e-5,1e-5 -1.4e-5,1e-5 -13.978491,15.8311 -27.423098,32.08042 -40.4168982,48.63377 -4.3e-6,0 -8.6e-6,1e-5 -1.28e-5,2e-5 -4.0159639,5.11527 -8.0002616,10.27564 -11.9376099,15.49133 -0.7169597,0.94973 -1.4349269,1.90478 -2.1530728,2.86574 z"
       style="fill:#001787;fill-opacity:1;fill-rule:evenodd;stroke:none;filter:url(#filter5095)" />
    <path
       sodipodi:nodetypes="csssssc"
       transform="translate(0,452.36218)"
       inkscape:connector-curvature="0"
       inkscape:original-d="M 67.500001,518.21429 C 95.357143,492.5 93.57143,486.78571 104.28571,462.14286 115.66453,435.97158 111.07143,407.85714 85.357143,397.5 59.642857,387.14286 39.285714,374.64286 30.714285,396.42857 c -8.571428,21.78572 -35.7142849,72.5 -6.785714,63.92857 28.928572,-8.57142 83.214279,-11.42857 59.642858,-26.42857 -23.571429,-15 -70,-15.71429 -49.642857,-2.14286"
       inkscape:path-effect="#path-effect4881;#path-effect4883"
       id="path5057"
       d="m 63.711736,512.97489 5.859226,8.10367 C 89.67071,508.3574 105.26349,487.81524 112.0636,463.85323 c 0,-10e-6 0,-10e-6 0,-10e-6 3.56603,-12.40739 4.68679,-25.95374 2.02565,-39.52328 0,0 0,-1e-5 0,-1e-5 -1.7212,-8.76716 -5.22932,-17.35088 -10.53462,-25.00055 4.82928,8.0157 7.69797,16.76145 8.7883,25.45573 1.10746,8.86769 0.55598,17.52257 -1.18346,25.71932 0.7708,-8.27017 0.33678,-16.71873 -1.63205,-24.98547 0,0 0,0 0,0 -3.00005,-12.59765 -9.898881,-24.50418 -20.363567,-32.95582 -2.421312,-1.93343 -5.01181,-3.64943 -7.733384,-5.12912 2.686346,1.54723 5.229882,3.32462 7.59389,5.31003 10.217805,8.67582 16.692741,20.63847 19.321121,33.08297 0,10e-6 0,10e-6 1e-5,10e-6 1.04537,4.95087 1.52832,9.94499 1.52926,14.908 0.0587,-4.96565 -0.36536,-9.97397 -1.35579,-14.95322 -2.49097,-12.51702 -8.861189,-24.63675 -19.110716,-33.5356 -2e-6,-1e-5 -4e-6,-1e-5 -6e-6,-1e-5 C 80.901879,384.94834 70.008799,380.31418 58.391826,379.43301 46.763319,378.5757 34.817888,381.5679 24.696874,388.25831 13.32909,395.85677 5.00392,407.73213 1.7681718,421.47885 6.2371996,407.96171 15.614208,397.27603 26.930067,391.29047 c 4.942512,-2.59107 10.156309,-4.24704 15.367688,-5.03302 -5.023257,1.3759 -9.862042,3.56151 -14.266398,6.52832 0,0 -1e-6,0 -2e-6,0 -11.076089,7.50198 -18.9110214,19.74889 -20.9489636,33.46057 -1.9891923,13.71899 1.9230371,28.19595 11.0268136,39.2915 4.426677,5.39736 10.047251,9.89154 16.51289,13.0121 -6.328182,-3.43401 -11.66862,-8.17964 -15.745111,-13.69562 -6.507292,-8.79899 -9.7093651,-19.33226 -9.5987461,-29.56072 0.8409671,10.14797 4.9461811,19.98646 11.7390731,27.65529 1e-6,10e-6 2e-6,10e-6 2e-6,10e-6 5.554309,6.27096 12.859858,11.02044 21.023753,13.32529 6.855535,1.92857 14.222562,2.0167 21.138526,0.13295 -6.974524,1.66993 -14.27755,1.33467 -20.959746,-0.7745 -7.959927,-2.51977 -14.929608,-7.41016 -20.111498,-13.65504 -1e-6,0 -2e-6,0 -3e-6,0 -8.157633,-9.8298 -11.776311,-22.93081 -10.035592,-35.1984 0.363338,-2.54713 0.95583,-5.04771 1.755477,-7.47185 -0.685228,2.45748 -1.157641,4.97161 -1.399803,7.50983 -1.159996,12.22426 3.047227,24.79206 11.233668,33.77719 5.206094,5.71402 11.985859,10.00298 19.410297,11.97893 3e-6,0 7e-6,0 10e-6,0 7.424065,1.97566 15.478842,1.58647 22.520611,-1.32661 7.040146,-2.91172 13.01874,-8.38301 16.269355,-15.18844 3.251034,-6.80042 3.70948,-14.93036 1.03097,-21.87829 -2e-6,-10e-6 -3e-6,-10e-6 -4e-6,-10e-6 -1.83755,-4.78092 -5.114835,-8.99276 -9.261583,-11.93518 -4.14569,-2.94388 -9.172279,-4.62712 -14.21724,-4.78189 -3e-6,0 -6e-6,0 -9e-6,0 -5.044871,-0.15693 -10.128622,1.21335 -14.384591,3.85672 -4.257275,2.6412 -7.709788,6.56894 -9.776245,11.09202 2.178321,-4.47024 5.710514,-8.27787 9.968078,-10.7743 4.255879,-2.49922 9.270261,-3.70767 14.160746,-3.43284 4.890638,0.27121 9.702403,2.02727 13.593758,4.94032 3e-6,0 6e-6,0 9e-6,0 3.893706,2.90983 6.908585,7.00647 8.525067,11.55118 2.368674,6.59176 1.710325,14.24118 -1.45477,20.46721 -3.159893,6.24723 -8.877885,11.18305 -15.405433,13.70233 -6.537664,2.53374 -13.992273,2.6814 -20.735373,0.7173 -6.756841,-1.96168 -12.885426,-6.08265 -17.521554,-11.4118 -7.274162,-8.3624 -10.806087,-19.9927 -9.487545,-30.87674 1.289183,-10.88869 7.445648,-21.22967 16.270878,-27.53477 2.736801,-1.96688 5.741976,-3.56696 8.900099,-4.77524 -3.10593,1.33938 -6.026329,3.05739 -8.64906,5.11609 -8.456969,6.59725 -13.969679,16.96623 -14.743185,27.38385 -0.817025,10.41081 3.057292,21.23151 10.064806,28.58938 4.475441,4.69992 10.213401,8.19443 16.245472,9.63399 6.000992,1.44554 12.498597,1.01387 17.839807,-1.38395 5.314936,-2.35829 9.872075,-6.69349 12.054929,-11.70698 2.201804,-4.94613 2.416385,-10.9951 0.406355,-15.61686 -1.013727,-2.45387 -2.636329,-4.71616 -4.604003,-6.48976 1.91501,1.82772 3.460848,4.12077 4.391584,6.56851 1.85297,4.6081 1.464721,10.52537 -0.786068,15.24623 -10e-7,0 -2e-6,0 -3e-6,0 -2.230296,4.7935 -6.747385,8.8552 -11.868826,10.98314 -2e-6,0 -5e-6,1e-5 -7e-6,1e-5 -5.151346,2.17304 -11.372823,2.4219 -17.023688,0.9281 -5.688523,-1.4865 -11.057491,-4.94214 -15.190545,-9.46665 -6.460507,-7.07261 -9.872081,-17.38856 -8.901293,-27.00449 0.906353,-9.62595 6.267442,-19.15683 14.086752,-24.98688 6.345761,-4.78906 14.565743,-7.40454 22.623113,-7.28306 0.717839,0.009 1.436721,0.0398 2.155369,0.0922 -0.723351,0.005 -1.443617,0.0311 -2.159413,0.0796 -10e-7,0 -10e-7,0 -2e-6,0 -8.034158,0.52299 -15.802826,3.78063 -21.371822,8.80474 0,0 -10e-7,10e-6 -10e-7,10e-6 -5.533027,4.91989 -9.241763,11.89673 -10.447937,18.82357 1.657094,-6.80122 5.733602,-13.34856 11.281123,-17.6923 5.584384,-4.45571 13.07825,-7.05279 20.472337,-7.11916 7.409553,-0.0967 15.144146,2.40887 21.346237,6.88523 2e-6,0 3e-6,0 4e-6,0 7.615543,5.35159 13.217385,14.19529 16.109993,23.8325 10e-7,0 2e-6,10e-6 3e-6,10e-6 2.909436,9.70903 2.884964,20.57325 0.907506,31.18704 -3.889139,20.4195 -15.73165,39.7114 -32.595427,52.58652 z"
       style="fill:#001787;fill-rule:evenodd;stroke:none;fill-opacity:1;filter:url(#filter5099)" />
    <path
       sodipodi:nodetypes="csssc"
       inkscape:connector-curvature="0"
       inkscape:original-d="m 78.928571,845.57645 c 0,0 -16.785714,-10.35714 -22.5,-17.5 -5.714285,-7.14285 -2.499999,-30.35713 8.214287,-47.49998 10.714286,-17.14286 22.5,21.07142 24.642857,36.7857 2.142854,15.71429 -17.142857,-6.42857 -23.571429,-23.21428"
       inkscape:path-effect="#path-effect4887;#path-effect4889"
       id="path5059"
       d="m 77.658288,849.43726 3.125377,-9.49905 c -7.820791,-2.71527 -14.723505,-8.30153 -18.977534,-15.28267 -3.886873,-6.44217 -5.739259,-14.21643 -4.48914,-21.20617 0,0 0,0 0,0 1.199631,-6.90527 5.36778,-13.53899 11.082112,-16.7519 10e-7,0 2e-6,0 4e-6,0 3.947479,-2.28842 8.777311,-3.27419 12.995681,-2.4567 4.176326,0.77319 8.23149,3.26444 10.398129,6.59036 1.295831,1.92478 2.111676,4.29986 2.325395,6.63189 -0.05338,-2.34925 -0.716589,-4.82414 -1.93118,-6.91243 -2.030804,-3.59586 -6.114655,-6.49974 -10.589109,-7.59223 -4.509389,-1.12919 -9.800112,-0.38033 -14.304168,1.93805 -10e-7,0 -2e-6,0 -3e-6,0 -2.997761,1.51156 -5.681241,3.81899 -7.869695,6.62966 2.063659,-2.89549 4.656717,-5.33609 7.632976,-7.01541 4.473671,-2.56857 9.881832,-3.6166 14.71872,-2.67442 4.808161,0.91225 9.356224,3.7725 11.893719,7.65935 2.547274,3.82572 3.425695,8.97984 2.101853,13.09578 -0.641279,2.09796 -1.782527,4.06096 -3.26421,5.5755 -10e-7,0 -10e-7,0 -2e-6,0 -1.474881,1.51514 -3.343627,2.68168 -5.290249,3.28035 -2.127012,0.66918 -4.513301,0.72298 -6.62812,0.16579 -2.117104,-0.547 -4.134507,-1.74315 -5.60404,-3.30409 -0.278056,-0.29238 -0.541312,-0.60222 -0.788234,-0.92632 0.203434,0.35975 0.426957,0.70982 0.669841,1.04654 1.282874,1.79626 3.239902,3.33934 5.489325,4.2231 0,0 0,0 1e-6,0 2.247513,0.89227 4.930022,1.15536 7.508754,0.64638 0,0 0,0 10e-7,0 2.35431,-0.45611 4.712753,-1.59055 6.696688,-3.26267 1.128878,-0.94951 2.145889,-2.08916 3.006321,-3.36815 -0.651814,1.38408 -1.488278,2.68427 -2.488098,3.83972 -1.757489,2.03467 -4.044224,3.66018 -6.576312,4.61698 -2.77777,1.05564 -5.90912,1.32379 -8.867415,0.73787 0,0 -10e-7,0 -10e-7,0 -2.959048,-0.58256 -5.796093,-2.03101 -8.028939,-4.12341 0,0 -10e-7,0 -10e-7,0 -2.234996,-2.09022 -3.898168,-4.85679 -4.697588,-7.85637 -0.802036,-2.99896 -0.749121,-6.26914 0.172122,-9.2799 -1.260901,2.89775 -1.717213,6.24925 -1.216264,9.53091 0.467035,3.06544 1.772154,6.07709 3.79537,8.60704 0.149851,0.17206 0.303038,0.34146 0.4595,0.50806 2.372504,2.52565 5.488352,4.39617 8.912556,5.30301 10e-7,0 10e-7,0 2e-6,0 3.424423,0.90587 7.132182,0.84179 10.590937,-0.22412 3.145933,-0.97174 6.053635,-2.75495 8.394676,-5.14595 10e-7,0 10e-7,0 2e-6,0 2.339522,-2.39117 4.099042,-5.36082 5.102252,-8.60263 0.51381,-1.6769 0.81979,-3.41104 0.925,-5.16121 0.0909,1.75471 -0.0205,3.53871 -0.35594,5.31512 0,0 0,0 0,0 -0.65918,3.43101 -2.14158,6.75512 -4.389392,9.61525 -2.251273,2.85977 -5.240405,5.19609 -8.726805,6.69506 -1.027681,0.4391 -2.090045,0.80135 -3.177091,1.08365 1.099376,-0.21676 2.183799,-0.51533 3.243139,-0.89481 3.593662,-1.29664 6.795161,-3.47662 9.311678,-6.29157 2.512071,-2.8154 4.302991,-6.19112 5.244481,-9.80025 0,0 0,-1e-5 0,-1e-5 1.85338,-7.2642 0.24623,-15.01604 -4.06315,-20.95552 -4.317711,-5.90003 -10.932801,-9.74868 -18.017099,-10.7993 -7.066226,-1.02996 -14.289049,0.62297 -20.217644,4.34684 -2e-6,10e-6 -4e-6,10e-6 -6e-6,10e-6 -8.488645,5.37934 -13.9868,14.55335 -15.315295,24.27592 -0.704631,5.22611 -0.280945,10.50306 1.078948,15.51259 -1.576732,-4.95258 -2.237022,-10.25386 -1.74365,-15.61099 1e-6,-1e-5 1e-6,-1e-5 1e-6,-1e-5 0.941915,-9.97346 6.178437,-19.71871 14.977186,-25.81164 10e-7,0 2e-6,0 3e-6,0 3.82785,-2.61736 8.244891,-4.41656 12.920899,-5.20105 -4.693478,0.64212 -9.190647,2.30589 -13.146113,4.83405 -9.090398,5.89143 -14.84032,15.64215 -16.160886,25.97006 0,0 -10e-7,0 -10e-7,0 -1.28309,10.27031 1.481197,20.5564 7.01022,28.86244 0.202505,0.30577 0.408531,0.60891 0.618002,0.90937 -0.227848,-0.28814 -0.452548,-0.5794 -0.674015,-0.87374 -10e-7,0 -10e-7,0 -10e-7,0 -6.044444,-7.99569 -9.545193,-18.30687 -8.80345,-29.17183 0,0 10e-7,0 10e-7,-1e-5 0.300812,-4.15053 1.280048,-8.27858 2.913586,-12.19111 -1.720375,3.86917 -2.800382,7.98106 -3.200915,12.14858 0,0 0,0 0,0 -1.002672,10.90627 2.237697,21.45386 8.199174,29.78156 10e-7,0 10e-7,0 2e-6,0 6.418839,9.01922 15.793678,15.47006 26.087121,18.2708 z"
       style="fill:#001787;fill-opacity:1;fill-rule:evenodd;stroke:none;filter:url(#filter5103)" />
    <path
       sodipodi:nodetypes="cssssssc"
       inkscape:connector-curvature="0"
       inkscape:original-d="m 117.04463,936.64895 c 0,0 4.09136,-18.99419 26.31472,-19.49927 22.22336,-0.50508 84.57798,4.62183 93.16427,25.32995 8.5863,20.70813 19.95795,82.52177 -17.92277,82.52177 -37.88072,0 -94.58668,-33.66679 -81.95977,-52.35461 12.62691,-18.68783 39.30929,-46.67623 61.02757,-24.95795 21.71827,21.71828 29.4826,67.17506 -7.89304,57.57866 -37.37565,-9.59646 -37.80893,-31.06959 -18.61603,-33.59497"
       inkscape:path-effect="#path-effect4893;#path-effect4895"
       id="path5061"
       d="m 112.78112,932.7995 c 12.11809,-4.90269 24.42304,-6.49647 35.4151,-5.35013 0.0127,0.001 0.0253,0.003 0.038,0.004 13.85802,-6.01958 29.79625,-7.50452 43.67266,-3.45821 13.81043,3.97094 26.30359,13.42611 32.7524,25.45033 0,0 0,0 0,1e-5 5.77042,10.45982 7.48412,23.44464 4.65439,34.72257 -2.006,8.22627 -6.50329,16.0096 -12.47981,21.977 6.22291,-5.7341 11.09516,-13.41844 13.47525,-21.76275 1.91464,-6.56316 2.32744,-13.79998 1.25907,-20.89832 1.45507,7.01413 1.46417,14.32774 -0.0989,21.14804 -2.6575,11.89104 -10.21424,23.00843 -20.22072,29.70823 -6.91792,4.647 -15.13812,7.4969 -23.21286,7.8177 -1e-5,0 -1e-5,0 -1e-5,0 -8.045,0.3412 -16.32018,-1.684 -22.92211,-5.8248 -6.58924,-4.0957 -12.00882,-10.4331 -14.65435,-17.44352 -2.33053,-6.06601 -2.84368,-13.04252 -1.35399,-19.21959 -1.75225,6.11732 -1.5389,13.20019 0.60291,19.51909 2.43069,7.29732 7.75702,14.07772 14.50776,18.62982 1e-5,0 1e-5,0 1e-5,0 6.76185,4.5915 15.37899,7.0632 23.96591,6.9983 5.95094,-0.034 12.02725,-1.3381 17.72903,-3.713 -5.56151,2.6742 -11.60835,4.3297 -17.67466,4.7025 -8.75602,0.5542 -17.81851,-1.4699 -25.27422,-5.9123 -7.44678,-4.4111 -13.61849,-11.3334 -16.83807,-19.2761 -3.23724,-7.90663 -3.75361,-17.1701 -1.14726,-25.22806 2.96881,-9.42172 10.48904,-17.82209 19.62461,-21.64892 9.08419,-3.8946 20.4411,-3.52147 29.19158,1.14236 1e-5,0 1e-5,0 1e-5,0 4.76312,2.53708 8.95218,6.21735 11.63356,10.63976 2.67262,4.38591 4.11462,9.64389 3.67323,14.5505 -0.13119,1.54589 -0.43826,3.09641 -0.90662,4.59466 0.5027,-1.48705 0.84665,-3.03405 1.01439,-4.58489 0.55596,-4.92156 -0.77311,-10.27044 -3.39681,-14.79181 -2.63199,-4.55588 -6.81729,-8.40599 -11.64359,-11.10281 -8.87405,-4.9628 -20.5348,-5.62347 -30.10785,-1.75933 -9.61602,3.80779 -17.66287,12.38105 -21.02922,22.31972 -2.92675,8.49042 -2.60542,18.2925 0.69167,26.82672 1.62552,4.2365 4.01615,8.2185 6.97796,11.7554 -3.03198,-3.477 -5.5115,-7.4214 -7.2349,-11.6529 -3.49431,-8.5253 -4.03948,-18.44266 -1.22835,-27.19044 3.23929,-10.24459 11.29992,-19.24311 21.25302,-23.4371 9.91902,-4.23833 22.1109,-3.83371 31.6963,1.24696 0,0 0,10e-6 0,10e-6 5.20083,2.75572 9.76836,6.78947 12.76809,11.70212 2.99405,4.88937 4.57872,10.74388 4.09864,16.34141 -0.27633,3.33028 -1.26673,6.65214 -2.87488,9.58699 -1.00486,2.01597 -2.30178,3.87914 -3.87252,5.47138 -3.86374,3.95525 -9.59074,6.48447 -15.23764,6.26647 -1e-5,0 -1e-5,0 -1e-5,0 -6.28596,-0.1704 -12.79952,-3.86999 -16.25416,-9.50924 -3.49144,-5.61886 -4.02164,-13.38361 -1.0945,-19.67733 -3.27085,6.11568 -3.26486,14.07065 0.0788,20.24017 3.32276,6.18108 10.01176,10.6208 17.08236,11.2613 6.33086,0.5961 12.9378,-1.7782 17.71353,-6.12023 4.78731,-4.34426 7.78778,-10.64417 8.45095,-17.15756 0,0 0,-10e-6 0,-10e-6 0.66648,-6.51944 -0.97104,-13.26236 -4.32778,-18.97113 -3.35781,-5.71238 -8.41617,-10.41003 -14.26471,-13.64121 -10.82447,-5.9805 -24.46914,-6.76712 -36.06007,-2.11505 -10e-6,0 -10e-6,0 -10e-6,0 -11.59239,4.65191 -20.98435,14.63811 -25.04875,26.57225 -2.68672,7.89431 -3.07427,16.54184 -1.28482,24.73291 -1.98499,-8.14628 -1.81705,-16.85262 0.71353,-24.92095 3.83466,-12.19987 13.14044,-22.66186 25.04303,-27.78021 0,0 0,0 0,0 11.91012,-5.10633 26.13192,-4.68255 37.78457,1.38087 5.71698,2.97506 10.79858,7.28551 14.53647,12.64186 -3.65,-5.41589 -8.6757,-9.83192 -14.38528,-12.92252 -11.64026,-6.29992 -26.03404,-7.01256 -38.3054,-1.9945 -12.25808,5.03784 -22.01267,15.57724 -26.20896,28.16905 0,10e-6 0,10e-6 0,10e-6 -3.55152,10.71476 -3.09784,22.60148 1.0469,33.08622 4.15032,10.4752 11.84385,19.4087 21.45571,25.2538 1e-5,0 1e-5,0 1e-5,0 9.61,5.8364 20.97132,8.5752 32.17775,7.9913 4.35938,-0.229 8.67836,-0.9495 12.87219,-2.1174 -4.09861,1.5052 -8.39454,2.583 -12.81447,3.1678 0,0 0,0 -10e-6,0 -11.36434,1.4962 -23.40949,-0.3602 -34.17699,-5.828 -7.42668,-3.7843 -14.09399,-9.2698 -19.34241,-16.0861 4.80128,7.1142 11.1539,13.0992 18.5084,17.4665 10.66133,6.3082 23.04169,9.1596 35.22787,8.3941 12.16934,-0.7779 23.88145,-5.0195 33.72492,-11.925 14.31292,-10.0533 24.37966,-25.4574 27.92631,-42.45644 1e-5,0 1e-5,-10e-6 1e-5,-10e-6 3.5083,-17.00126 0.41749,-34.98668 -8.4057,-49.79402 -5.55985,-9.24398 -13.16905,-17.01974 -22.00684,-22.91875 9.31352,5.19608 17.69139,12.47158 24.20046,21.6308 10.31799,14.68732 15.19654,33.49842 12.67123,52.47223 0,0 0,0 0,0 -1.00294,7.32083 -3.0898,14.50849 -6.18572,21.31139 3.34336,-6.6665 5.71639,-13.78826 7.01406,-21.1331 3.28456,-19.03622 -0.79768,-38.45656 -10.87547,-54.19122 -11.6132,-17.85926 -29.96818,-29.80318 -49.79037,-33.95337 0,0 0,0 -1e-5,0 -19.76919,-4.09023 -40.13733,-0.70894 -57.22228,8.28485 -10.61166,5.57072 -19.9723,13.20581 -27.46051,22.28874 z"
       style="fill:#001787;fill-opacity:1;fill-rule:evenodd;stroke:none;filter:url(#filter5107)" />
    <path
       style="fill:#006bda;fill-opacity:1;fill-rule:evenodd;stroke:none;filter:url(#filter5179)"
       d="m -7.4272512,1052.2123 c 6.3042497,6.3672 12.6133964,12.7281 18.9274402,19.0827 5.508148,-6.8233 11.015404,-13.6454 16.521768,-20.4664 13.129968,-15.8267 26.640874,-31.2879 40.606616,-46.263 16.510964,-17.69373 33.481257,-34.69975 51.588397,-49.97031 8.26416,-6.96306 16.63655,-13.49806 25.31412,-19.16896 0,-10e-6 0,-10e-6 1e-5,-10e-6 7.33917,-4.74074 14.4913,-8.87827 21.64671,-11.37908 15.9013,-5.83455 32.9337,-9.48989 50.4661,-12.44289 2.60793,-0.43326 5.22098,-0.84426 7.83879,-1.23404 -2.65677,0.16797 -5.31238,0.3578 -7.96673,0.57061 -17.84077,1.47434 -35.35114,3.67771 -52.2505,8.26921 0,0 0,0 0,0 -4.42558,1.12297 -8.86596,2.76684 -13.31094,4.74393 4.23773,-2.32966 8.51418,-4.35006 12.86009,-5.8843 16.47204,-5.97446 33.8934,-9.67771 51.6474,-12.59415 1e-5,-10e-6 1e-5,-10e-6 2e-5,-10e-6 19.21891,-3.12925 38.65991,-5.06504 58.19443,-6.19969 17.62632,-1.01717 35.21705,-1.38496 52.68971,-0.8432 10e-6,0 10e-6,0 2e-5,0 6.90853,0.21574 13.72208,0.56564 20.41223,1.18245 1e-5,0 1e-5,0 2e-5,0 5.00902,0.47501 9.68978,0.99751 13.94007,1.90909 14.92345,3.02803 29.94344,5.57753 45.02432,7.68128 -15.02784,-2.58162 -29.96659,-5.60583 -44.7772,-9.10226 -4.30614,-1.09108 -9.04072,-1.79096 -14.06784,-2.43424 0,0 0,0 -10e-6,0 -6.72728,-0.84827 -13.5837,-1.42906 -20.52786,-1.8735 -10e-6,0 -10e-6,0 -10e-6,0 -16.69914,-1.06571 -33.54727,-1.30622 -50.45137,-0.9402 16.8407,-1.1256 33.67972,-1.6496 50.45461,-1.34641 6.97578,0.12707 13.89119,0.39215 20.7228,0.92862 5.0887,0.40874 9.9667,0.88878 14.5447,1.78439 24.44246,4.6555 49.12669,8.01824 73.89937,10.24007 0,0 10e-6,0 10e-6,0 12.06916,1.08644 24.23788,1.87245 36.49305,2.15016 -12.25254,-0.66354 -24.38625,-1.83514 -36.40806,-3.30467 -19.99091,-2.43861 -39.87455,-5.62112 -59.56125,-9.62074 19.85009,2.93532 39.80821,5.03978 59.79843,6.39914 14.67182,1.00089 29.43514,1.55637 44.2414,1.29081 13.24074,-0.22487 26.69198,-1.06605 40.03393,-3.62576 13.80378,-2.69351 26.80868,-7.45164 39.35976,-12.41139 14.7676,-5.80879 29.18897,-12.16001 43.61632,-18.21662 9.77162,-4.09804 19.53341,-8.10242 29.38115,-11.71058 -9.90144,3.45892 -19.72835,7.31804 -29.56288,11.27073 -14.52208,5.84192 -29.03731,11.9781 -43.86015,17.55637 -12.60868,4.76252 -25.60897,9.30885 -39.26224,11.76194 -13.2257,2.34428 -26.56099,2.9759 -39.73567,3.01056 0,0 -1e-5,0 -1e-5,0 -14.72084,0.0478 -29.39476,-0.72322 -43.99006,-1.93553 -14.21431,-1.1791 -28.39883,-2.73582 -42.52448,-4.70019 14.17423,1.58947 28.38569,2.76844 42.60775,3.56919 14.60103,0.82331 29.24756,1.20427 43.87784,0.76874 0,0 10e-6,0 10e-6,0 13.10372,-0.38691 26.2729,-1.35522 39.1489,-3.99654 0,0 0,0 1e-5,-10e-6 13.23577,-2.72193 25.86098,-7.53689 38.28623,-12.59287 10e-6,0 10e-6,0 2e-5,-10e-6 14.56206,-5.9243 28.86413,-12.42565 43.28798,-18.67885 14.50563,-6.2893 29.12315,-12.4123 44.20255,-17.38447 13.24085,-4.37411 26.95797,-7.99977 41.13214,-8.66076 10e-6,0 2e-5,0 2e-5,0 25.02735,-1.14814 49.94814,-4.06049 74.80885,-7.52718 0,-10e-6 10e-6,-10e-6 2e-5,-10e-6 8.9958,-1.25541 17.97616,-2.60349 26.93763,-4.05107 10e-6,0 2e-5,0 2e-5,0 2.59002,-0.41839 5.17644,-0.84474 7.75831,-1.28334 10e-6,0 10e-6,0 2e-5,0 0.68985,-0.11719 1.37825,-0.23507 2.06506,-0.35431 0,0 10e-6,0 2e-5,0 0,0 10e-6,0 2e-5,0 0.17761,-0.0308 0.35452,-0.0617 0.53071,-0.0926 0.0444,-0.008 0.0885,-0.0156 0.13228,-0.0233 0.16894,0.98945 0.33794,1.97917 0.50699,2.96914 0.059,0.3454 0.11799,0.69082 0.17698,1.03627 1.2e-4,7.4e-4 2.4e-4,0.001 3.6e-4,0.002 -1.2e-4,-7.3e-4 -2.4e-4,-0.001 -3.6e-4,-0.002 -0.059,-0.34545 -0.118,-0.6909 -0.17699,-1.03634 -0.16907,-0.99013 -0.33813,-1.98019 -0.50716,-2.9702 -0.0439,0.007 -0.0882,0.0133 -0.13279,0.02 -0.17687,0.0266 -0.35445,0.0531 -0.53272,0.0797 0,0 -10e-6,0 -2e-5,1e-5 -0.68937,0.10262 -1.38027,0.20387 -2.0726,0.30444 0,0 -10e-6,0 -10e-6,0 -2.59112,0.37636 -5.18621,0.74041 -7.78463,1.09644 -10e-6,0 -2e-5,0 -2e-5,0 0,0 0,0 0,0 -8.99058,1.23185 -17.99529,2.36354 -27.01122,3.40211 -10e-6,1e-5 -10e-6,1e-5 -2e-5,1e-5 -24.92001,2.86757 -49.85883,5.17644 -74.77622,5.71789 0,0 -10e-6,0 -10e-6,0 0,0 -10e-6,0 -10e-6,0 -14.57005,0.36076 -28.681,3.70653 -42.15515,7.83066 -15.37507,4.67272 -30.2661,10.4917 -44.95137,16.45102 -14.61984,5.92716 -29.04355,12.07264 -43.59246,17.58702 -10e-6,0 -2e-5,0 -2e-5,10e-6 -12.46695,4.70362 -24.84469,9.11106 -37.40983,11.34781 -12.34098,2.24175 -25.09093,2.85124 -37.97064,2.94171 -11.05967,0.0666 -22.14611,-0.34786 -33.24337,-1.07048 11.10593,0.5742 22.19278,0.83978 33.23775,0.62455 12.86461,-0.26411 25.57185,-1.04484 37.79857,-3.44348 12.43094,-2.38741 24.66325,-6.93996 37.04767,-11.79562 10e-6,0 10e-6,0 10e-6,0 14.43668,-5.69327 28.75938,-12.02214 43.32287,-18.15063 10e-6,0 10e-6,0 2e-5,0 14.62092,-6.1609 29.4969,-12.19728 44.94588,-17.11505 13.51948,-4.34921 27.84146,-7.9212 42.8759,-8.50402 0.94296,-0.033 1.88596,-0.0686 2.82899,-0.1067 -0.9433,0.0304 -1.88651,0.0583 -2.82965,0.0836 -15.04092,0.47145 -29.41587,3.93605 -42.9815,8.18507 -15.50442,4.80232 -30.44715,10.7273 -45.12202,16.77367 -14.61977,6.01491 -28.98965,12.22658 -43.44406,17.79082 -12.40947,4.74507 -24.61088,9.17542 -36.90988,11.42145 -12.12278,2.27611 -24.73991,2.94119 -37.55493,3.10379 -14.25825,0.16173 -28.58893,-0.48338 -42.95141,-1.55879 -24.20716,-1.81933 -48.31714,-4.7434 -72.18372,-8.93052 -5.67016,-0.98236 -11.22098,-1.46273 -16.57862,-1.7886 -1e-5,0 -2e-5,0 -3e-5,0 -7.31299,-0.4571 -14.58743,-0.62802 -21.80584,-0.64689 -10e-6,0 -2e-5,0 -2e-5,0 -18.25335,-0.0501 -36.4626,0.83431 -54.5669,2.38818 -11.80326,1.00992 -23.60511,2.31532 -35.37317,3.99322 11.73432,-1.91229 23.51717,-3.45427 35.31149,-4.70098 18.09015,-1.91752 36.31544,-3.16738 54.63113,-3.4809 7.24316,-0.1251 14.55957,-0.0968 21.9399,0.22004 5.39671,0.21934 11.0406,0.60334 16.87893,1.50391 10e-6,0 10e-6,0 10e-6,0 23.86292,3.68265 47.92292,6.09834 72.0434,7.41423 3.2951,0.17828 6.58573,0.33384 9.87111,0.46211 -3.28354,-0.15976 -6.57181,-0.34678 -9.86416,-0.55648 -10e-6,0 -10e-6,0 -10e-6,0 -24.10068,-1.54556 -48.11959,-4.18931 -71.91566,-8.09432 -5.87614,-0.95608 -11.54913,-1.3933 -16.95645,-1.6615 0,0 0,0 -10e-6,0 -7.40075,-0.38475 -14.73693,-0.48049 -21.99546,-0.42189 -15.17381,0.11988 -30.2939,0.88062 -45.33076,2.13136 14.94526,-2.49111 30.05455,-4.49834 45.33605,-5.86235 6.9811,-0.62464 14.07665,-1.10611 21.30461,-1.32342 -7.19207,-0.40359 -14.29746,-0.54543 -21.30197,-0.54245 -18.54638,0.003 -37.00128,0.95033 -55.30617,2.57583 -20.30719,1.79285 -40.65857,4.463 -60.89142,8.38826 -18.58511,3.56697 -37.50018,8.28775 -56.00028,15.58006 -10.44758,4.2255 -19.6361,9.7429 -27.83708,15.5401 -9.90553,6.92132 -19.0686,14.46112 -27.719709,22.20168 -6e-6,1e-5 -1.1e-5,1e-5 -1.6e-5,2e-5 -18.954494,16.94249 -36.273183,35.22815 -52.712985,53.86947 -14.000956,15.8602 -27.467906,32.1384 -40.4839276,48.7205 -4.6220727,6.0497 -9.2441072,12.0993 -13.8661036,18.1489 z"
       id="path4099"
       inkscape:path-effect="#path-effect5322"
       inkscape:original-d="m 3.5714314,1065.2193 c 0,0 96.4285686,-131.42855 157.8571386,-155.71426 61.42857,-24.28572 170,-28.57143 202.85714,-22.85715 32.85715,5.71429 110,15.71429 155.71429,7.14286 45.71429,-8.57143 117.14286,-52.85714 167.14286,-54.28571 C 737.14286,838.07646 800,828.07646 800,828.07646"
       inkscape:connector-curvature="0"
       sodipodi:nodetypes="cssssc" />
    <path
       style="fill:#006bda;fill-opacity:1;fill-rule:evenodd;stroke:none;filter:url(#filter5191)"
       d="m 63.711737,966.76564 5.859225,8.10367 c 20.099748,-12.72116 35.692528,-33.26332 42.492628,-57.22533 10e-6,-1e-5 10e-6,-1e-5 10e-6,-1e-5 3.56603,-12.40739 4.68679,-25.95374 2.02565,-39.52328 0,0 0,-10e-6 0,-10e-6 -1.72121,-8.76718 -5.22933,-17.3509 -10.53464,-25.00058 4.82929,8.01571 7.69799,16.76147 8.78832,25.45575 1.10746,8.86771 0.55598,17.52261 -1.18346,25.71937 0.7708,-8.27019 0.33678,-16.71876 -1.63205,-24.98551 -3.00005,-12.59765 -9.89888,-24.50418 -20.363566,-32.95582 -10e-7,0 -2e-6,0 -3e-6,0 -2.421305,-1.93342 -5.011795,-3.64942 -7.733361,-5.12911 2.686338,1.54723 5.229866,3.32462 7.593867,5.31002 1e-6,0 2e-6,0 3e-6,0 10.217803,8.67582 16.69274,20.63847 19.32112,33.08298 1.04538,4.95086 1.52833,9.94496 1.52927,14.90795 0.0587,-4.96563 -0.36537,-9.97394 -1.3558,-14.95317 -2.49096,-12.51702 -8.861185,-24.63676 -19.110714,-33.53561 -8.506359,-7.29786 -19.399439,-11.93202 -31.016413,-12.81319 -3e-6,0 -6e-6,0 -9e-6,0 -11.628504,-0.85731 -23.573933,2.13489 -33.694945,8.8253 -11.367768,7.59845 -19.6929295,19.47378 -22.9286879,33.22048 4.4690367,-13.51712 13.8460359,-24.20277 25.1618789,-30.18832 4.942519,-2.59108 10.156324,-4.24705 15.36771,-5.03303 -5.023264,1.3759 -9.862056,3.56152 -14.266417,6.52833 -11.07609,7.50198 -18.9110235,19.74889 -20.9489651,33.46057 -3e-7,10e-6 -6e-7,10e-6 -8e-7,10e-6 -1.9891896,13.71899 1.9230409,28.19595 11.0268159,39.29149 4.426667,5.39734 10.047223,9.89152 16.512841,13.01207 -6.328162,-3.434 -11.668583,-8.17962 -15.745064,-13.69558 -6.507311,-8.79902 -9.7093861,-19.33233 -9.5987505,-29.56081 0.8409525,10.148 4.9461705,19.98652 11.7390815,27.65537 5.554308,6.27097 12.859857,11.02045 21.023751,13.3253 2e-6,0 3e-6,0 4e-6,0 6.855517,1.92857 14.222524,2.0167 21.138473,0.13296 -6.974509,1.66992 -14.277514,1.33465 -20.959693,-0.77451 -7.959927,-2.51977 -14.929608,-7.41016 -20.111499,-13.65504 -10e-7,0 -2e-6,0 -3e-6,0 -8.157634,-9.8298 -11.776312,-22.93081 -10.035594,-35.1984 0.363339,-2.54714 0.955833,-5.04772 1.755485,-7.47188 -0.685231,2.4575 -1.157647,4.97163 -1.39981,7.50986 -1.159995,12.22426 3.047229,24.79206 11.23367,33.77719 5.206094,5.71402 11.98586,10.00298 19.410298,11.97892 7.424068,1.97567 15.478848,1.58648 22.52062,-1.3266 7.040146,-2.91172 13.01874,-8.38301 16.269355,-15.18844 3.251037,-6.80042 3.709481,-14.93036 1.030968,-21.8783 -1.837549,-4.78092 -5.114835,-8.99276 -9.261584,-11.93519 -2e-6,0 -5e-6,0 -7e-6,0 -4.145689,-2.94387 -9.172275,-4.62711 -14.217233,-4.78188 -3e-6,0 -6e-6,0 -1e-5,0 -5.044871,-0.15693 -10.128622,1.21335 -14.384592,3.85671 -4.257275,2.6412 -7.709788,6.56895 -9.776245,11.09203 2.178321,-4.47024 5.710514,-8.27787 9.968078,-10.7743 4.25588,-2.49922 9.270262,-3.70767 14.160748,-3.43284 4.890638,0.2712 9.702403,2.02727 13.593759,4.94032 3e-6,0 6e-6,0 9e-6,0 3.893706,2.90983 6.908585,7.00647 8.525067,11.55118 2.368672,6.59176 1.710325,14.24117 -1.454767,20.4672 -10e-7,0 -3e-6,0 -5e-6,10e-6 -3.159892,6.24723 -8.877884,11.18305 -15.405433,13.70233 -6.537664,2.53374 -13.992272,2.6814 -20.735373,0.7173 -6.756837,-1.96167 -12.885419,-6.08265 -17.521547,-11.41179 -3e-6,-10e-6 -5e-6,-10e-6 -7e-6,-10e-6 -7.274162,-8.3624 -10.806088,-19.9927 -9.487547,-30.87674 1.289183,-10.88869 7.445646,-21.22966 16.270876,-27.53477 2.736803,-1.96688 5.74198,-3.56696 8.900105,-4.77525 -3.105932,1.33939 -6.026333,3.0574 -8.649066,5.1161 -8.456968,6.59725 -13.969677,16.96623 -14.743183,27.38385 0,1e-5 0,1e-5 0,1e-5 -0.817022,10.41081 3.057296,21.2315 10.064809,28.58937 4.475441,4.69992 10.2134,8.19443 16.245472,9.63399 6.000989,1.44554 12.49859,1.01386 17.839799,-1.38395 3e-6,0 5e-6,0 7e-6,0 5.314935,-2.35829 9.872074,-6.69349 12.054928,-11.70698 2.201805,-4.94613 2.416385,-10.9951 0.406356,-15.61686 -1.013719,-2.45385 -2.636306,-4.71613 -4.603961,-6.48972 1.914991,1.82771 3.460814,4.12074 4.391544,6.56847 1.852969,4.6081 1.46472,10.52537 -0.78607,15.24623 -2.230294,4.7935 -6.747385,8.8552 -11.868829,10.98314 -2e-6,0 -4e-6,0 -7e-6,10e-6 -5.151346,2.17304 -11.372823,2.4219 -17.023688,0.9281 -5.688522,-1.4865 -11.05749,-4.94214 -15.190545,-9.46666 -6.460507,-7.0726 -9.872082,-17.38855 -8.901295,-27.00448 0,0 10e-7,-10e-6 10e-7,-10e-6 0.906355,-9.62595 6.267442,-19.15682 14.086749,-24.98687 6.345761,-4.78906 14.565744,-7.40454 22.623114,-7.28306 0.717849,0.009 1.436743,0.0397 2.155401,0.0921 -0.723362,0.005 -1.443639,0.0311 -2.159445,0.0796 -10e-7,0 -2e-6,0 -2e-6,0 -8.034159,0.52299 -15.802827,3.78063 -21.371823,8.80475 -5.533026,4.91989 -9.241762,11.89673 -10.447936,18.82357 1.657093,-6.80122 5.733601,-13.34856 11.281122,-17.6923 5.584383,-4.45571 13.07825,-7.0528 20.472337,-7.11916 7.409553,-0.0967 15.144147,2.40887 21.346238,6.88523 2e-6,0 3e-6,0 4e-6,0 7.615543,5.35159 13.217385,14.19529 16.109994,23.8325 10e-7,0 2e-6,10e-6 2e-6,10e-6 2.909437,9.70903 2.884966,20.57325 0.907508,31.18704 -3.889138,20.4195 -15.73165,39.7114 -32.595426,52.58652 z"
       id="path4879"
       inkscape:path-effect="#path-effect5314;#path-effect5316"
       inkscape:original-d="m 67.500001,972.00504 c 27.85714,-25.71429 26.07143,-31.42858 36.785709,-56.07143 11.37882,-26.17128 6.78572,-54.28572 -18.928569,-64.64286 -25.71428,-10.35714 -46.07143,-22.85714 -54.64286,-1.07143 -8.57142,21.78572 -35.7142806,72.5 -6.78571,63.92857 28.92857,-8.57142 83.214279,-11.42857 59.64286,-26.42857 -23.57143,-15 -70,-15.71429 -49.64286,-2.14286"
       inkscape:connector-curvature="0"
       sodipodi:nodetypes="csssssc" />
    <path
       style="fill:#006bda;fill-opacity:1;fill-rule:evenodd;stroke:none;filter:url(#filter5187)"
       d="m 77.658288,850.86583 3.125377,-9.49905 c -7.820791,-2.71527 -14.723505,-8.30153 -18.977534,-15.28267 -3.886874,-6.44217 -5.73926,-14.21643 -4.489141,-21.20617 1e-6,0 1e-6,0 1e-6,0 1.199631,-6.90527 5.367781,-13.53899 11.082113,-16.7519 3.94748,-2.28842 8.777313,-3.27419 12.995683,-2.45669 4.176324,0.77318 8.231487,3.26444 10.398125,6.59036 1.29583,1.92478 2.111674,4.29986 2.325393,6.63188 -0.05338,-2.34925 -0.716588,-4.82413 -1.931179,-6.91243 -2.030802,-3.59586 -6.114651,-6.49973 -10.589103,-7.59223 0,0 -10e-7,0 -2e-6,0 -4.509387,-1.12919 -9.80011,-0.38033 -14.304166,1.93805 -2.997764,1.51156 -5.681245,3.819 -7.8697,6.62967 2.06366,-2.8955 4.65672,-5.3361 7.632981,-7.01542 4.473669,-2.56856 9.881829,-3.6166 14.718716,-2.67442 2e-6,0 3e-6,0 4e-6,0 4.808159,0.91226 9.356218,3.77251 11.893711,7.65936 2.547273,3.82571 3.425693,8.97984 2.101851,13.09577 -0.641279,2.09796 -1.782527,4.06096 -3.264209,5.5755 -1.47488,1.51514 -3.343628,2.68168 -5.29025,3.28035 -2.127012,0.66918 -4.513301,0.72298 -6.62812,0.16579 -2.117104,-0.547 -4.134508,-1.74315 -5.60404,-3.30409 -0.278057,-0.29238 -0.541314,-0.60222 -0.788235,-0.92632 0.203434,0.35975 0.426957,0.70982 0.669841,1.04654 1.282874,1.79626 3.239902,3.33934 5.489325,4.2231 1e-6,0 1e-6,0 2e-6,0 2.247513,0.89227 4.930022,1.15536 7.508754,0.64638 10e-7,0 10e-7,0 2e-6,0 2.354309,-0.45611 4.712752,-1.59055 6.696686,-3.26267 1.128878,-0.9495 2.145887,-2.08915 3.006319,-3.36814 -0.651813,1.38408 -1.488277,2.68426 -2.488096,3.83971 -1.757489,2.03467 -4.044223,3.66018 -6.57631,4.61698 -2.777771,1.05564 -5.909122,1.32379 -8.867417,0.73787 -2.959048,-0.58256 -5.796093,-2.03101 -8.028939,-4.12341 -10e-7,0 -10e-7,0 -2e-6,0 -2.234995,-2.09021 -3.898168,-4.85678 -4.697588,-7.85637 -0.802035,-2.99896 -0.74912,-6.26914 0.172123,-9.2799 -1.260901,2.89775 -1.717214,6.24925 -1.216264,9.53091 0.467034,3.06544 1.772152,6.07709 3.795368,8.60704 0.149852,0.17206 0.303039,0.34146 0.459501,0.50806 2.372505,2.52565 5.488353,4.39617 8.912557,5.30301 10e-7,0 2e-6,0 3e-6,0 3.424423,0.90587 7.132182,0.84179 10.590937,-0.22412 3.145933,-0.97174 6.053635,-2.75495 8.394676,-5.14595 2.339518,-2.39117 4.099038,-5.36082 5.102248,-8.60263 0.51382,-1.6769 0.81979,-3.41104 0.925,-5.16121 0.0909,1.75471 -0.0205,3.53871 -0.35593,5.31512 0,0 0,0 0,0 -0.65919,3.43102 -2.14159,6.75512 -4.389398,9.61525 0,0 -10e-7,0 -10e-7,0 -2.251273,2.85977 -5.240403,5.19609 -8.726802,6.69506 -1.027683,0.4391 -2.090049,0.80135 -3.177096,1.08365 1.099378,-0.21676 2.183803,-0.51533 3.243144,-0.89481 3.593662,-1.29664 6.795159,-3.47662 9.311676,-6.29157 2.512067,-2.8154 4.302987,-6.19112 5.244477,-9.80025 0,0 0,0 0,-10e-6 1.85338,-7.2642 0.24623,-15.01604 -4.06314,-20.95551 -4.317714,-5.90004 -10.932802,-9.74869 -18.017098,-10.79931 -7.066224,-1.02996 -14.289047,0.62297 -20.217642,4.34684 -2e-6,10e-6 -4e-6,10e-6 -5e-6,10e-6 -8.488647,5.37933 -13.986804,14.55335 -15.315299,24.27592 -0.704631,5.22611 -0.280946,10.50306 1.078949,15.5126 -1.576733,-4.95259 -2.237024,-10.25387 -1.743651,-15.61101 0.941916,-9.97346 6.17844,-19.71871 14.977191,-25.81164 10e-7,0 2e-6,0 3e-6,0 3.827848,-2.61736 8.244886,-4.41655 12.920891,-5.20105 -4.693474,0.64212 -9.190641,2.30589 -13.146105,4.83405 -9.0904,5.89143 -14.840323,15.64214 -16.16089,25.97006 -10e-7,0 -10e-7,0 -10e-7,0 -1.28309,10.27031 1.481195,20.5564 7.010218,28.86244 1e-6,0 2e-6,0 2e-6,0 0.202506,0.30577 0.408531,0.60891 0.618003,0.90937 -0.227848,-0.28814 -0.452548,-0.57939 -0.674016,-0.87374 -10e-7,0 -10e-7,0 -10e-7,0 -6.044445,-7.99569 -9.545194,-18.30688 -8.80345,-29.17183 0,0 0,-10e-6 0,-10e-6 0.300813,-4.15053 1.280048,-8.27858 2.913585,-12.1911 -1.720374,3.86917 -2.800381,7.98105 -3.200913,12.14857 -1e-6,0 -1e-6,0 -1e-6,0 -1.002672,10.90627 2.237698,21.45386 8.199175,29.78156 10e-7,0 10e-7,0 2e-6,0 6.41884,9.01922 15.793678,15.47005 26.087121,18.2708 z"
       id="path4885"
       inkscape:path-effect="#path-effect5310;#path-effect5312"
       inkscape:original-d="m 78.928571,847.00502 c 0,0 -16.78571,-10.35714 -22.5,-17.5 -5.71429,-7.14285 -2.5,-30.35713 8.21429,-47.49998 10.71428,-17.14286 22.5,21.07142 24.64285,36.7857 2.14286,15.71429 -17.14285,-6.42857 -23.57143,-23.21428"
       inkscape:connector-curvature="0"
       sodipodi:nodetypes="csssc" />
    <path
       style="fill:#006bda;fill-opacity:1;fill-rule:evenodd;stroke:none;filter:url(#filter5183)"
       d="m 112.78112,934.22807 c 12.11809,-4.90269 24.42304,-6.49647 35.4151,-5.35014 0.0127,0.001 0.0253,0.003 0.038,0.004 13.85801,-6.01958 29.79624,-7.50451 43.67265,-3.45821 0,0 0,0 1e-5,0 13.81043,3.97095 26.30358,13.42612 32.75239,25.45033 5.77043,10.45983 7.48413,23.44466 4.6544,34.7226 -2.006,8.22628 -6.50329,16.00961 -12.47983,21.97701 6.22292,-5.7341 11.09518,-13.41844 13.47527,-21.76276 1.91464,-6.56316 2.32744,-13.79997 1.25908,-20.8983 1.45506,7.01412 1.46416,14.32772 -0.0989,21.14802 -2.6575,11.89104 -10.21424,23.00844 -20.22073,29.70824 -6.91792,4.647 -15.13813,7.4969 -23.21287,7.8177 0,0 0,0 -1e-5,0 -8.045,0.3412 -16.32018,-1.684 -22.9221,-5.8249 -6.58925,-4.0956 -12.00883,-10.433 -14.65436,-17.4434 -2.33053,-6.06606 -2.84368,-13.04258 -1.35398,-19.21965 -1.75225,6.11732 -1.53891,13.20021 0.6029,19.51915 2.43069,7.2973 7.75702,14.0776 14.50777,18.6298 6.76185,4.5915 15.37899,7.0632 23.96591,6.9983 0,0 0,0 0,0 5.95094,-0.034 12.02724,-1.3381 17.72902,-3.713 -5.5615,2.6742 -11.60835,4.3297 -17.67464,4.7025 -8.75603,0.5542 -17.81852,-1.4699 -25.27423,-5.9123 -7.44678,-4.4111 -13.61849,-11.3334 -16.83807,-19.2761 0,0 0,0 0,0 -3.23724,-7.90666 -3.7536,-17.17013 -1.14725,-25.22809 2.96881,-9.42171 10.48904,-17.82208 19.62461,-21.64892 9.08419,-3.89459 20.4411,-3.52146 29.19158,1.14236 1e-5,0 1e-5,0 1e-5,10e-6 4.76313,2.53707 8.95219,6.21734 11.63357,10.63976 2.67262,4.38591 4.11463,9.64389 3.67324,14.55051 -0.13119,1.5459 -0.43827,3.09643 -0.90663,4.59469 0.50271,-1.48707 0.84666,-3.03407 1.0144,-4.58492 0.55596,-4.92157 -0.77312,-10.27045 -3.39682,-14.79183 -2.63199,-4.55587 -6.81729,-8.40599 -11.64359,-11.1028 0,0 0,0 -1e-5,-1e-5 -8.87405,-4.9628 -20.5348,-5.62347 -30.10785,-1.75932 -9.61601,3.80778 -17.66287,12.38104 -21.02922,22.31971 -2.92676,8.49042 -2.60542,18.29251 0.69166,26.82675 1.62551,4.2365 4.01614,8.2185 6.97795,11.7554 -3.03198,-3.4771 -5.51149,-7.4215 -7.23489,-11.6529 -3.49431,-8.52532 -4.03947,-18.44269 -1.22834,-27.19047 3.23929,-10.24459 11.29991,-19.24309 21.25301,-23.43709 1e-5,0 1e-5,0 1e-5,0 9.91902,-4.23834 22.1109,-3.83371 31.6963,1.24695 0,10e-6 0,10e-6 1e-5,10e-6 5.20083,2.75572 9.76836,6.78948 12.76809,11.70213 2.99406,4.88937 4.57872,10.74389 4.09865,16.34142 -0.27633,3.33028 -1.26673,6.65216 -2.8749,9.58702 -1.00486,2.01596 -2.30177,3.87912 -3.87251,5.47136 -3.86374,3.95527 -9.59075,6.48447 -15.23765,6.26647 0,0 -1e-5,0 -1e-5,0 -6.28596,-0.1704 -12.79953,-3.87 -16.25417,-9.50926 -3.49144,-5.61885 -4.02164,-13.38362 -1.09449,-19.67734 -3.27085,6.11568 -3.26487,14.07066 0.0788,20.24018 3.32276,6.18112 10.01177,10.62082 17.08237,11.26132 6.33086,0.5961 12.9378,-1.7782 17.71354,-6.12023 4.78732,-4.34426 7.78779,-10.64418 8.45096,-17.15758 0.66648,-6.51945 -0.97104,-13.26238 -4.32779,-18.97115 -3.35781,-5.71238 -8.41618,-10.41003 -14.26472,-13.64121 -10.82447,-5.98049 -24.46914,-6.76712 -36.06007,-2.11505 0,10e-6 -10e-6,10e-6 -10e-6,10e-6 -11.59238,4.65191 -20.98435,14.6381 -25.04875,26.57224 -2.68672,7.8943 -3.07427,16.54182 -1.28484,24.73289 -1.98498,-8.14628 -1.81703,-16.85261 0.71355,-24.92093 3.83466,-12.19986 13.14045,-22.66185 25.04303,-27.7802 0,0 0,0 1e-5,0 11.91011,-5.10634 26.13191,-4.68255 37.78456,1.38086 5.71699,2.97506 10.79861,7.28553 14.53651,12.6419 -3.65001,-5.41591 -8.67572,-9.83195 -14.38532,-12.92256 -11.64026,-6.29992 -26.03404,-7.01256 -38.3054,-1.9945 -12.25808,5.03784 -22.01266,15.57724 -26.20896,28.16905 0,1e-5 0,1e-5 0,1e-5 -3.55152,10.71476 -3.09785,22.60148 1.04689,33.08615 4.15032,10.4753 11.84384,19.4088 21.45571,25.2539 0,0 1e-5,0 1e-5,0 9.61,5.8364 20.97132,8.5752 32.17775,7.9913 4.35937,-0.229 8.67834,-0.9495 12.87217,-2.1174 -4.09861,1.5052 -8.39453,2.583 -12.81445,3.1678 -11.36435,1.4962 -23.4095,-0.3603 -34.177,-5.8281 -1e-5,0 -1e-5,0 -1e-5,0 -7.42668,-3.7842 -14.09399,-9.2697 -19.34242,-16.0861 4.80128,7.1143 11.15391,13.0993 18.50841,17.4666 10.66133,6.3082 23.0417,9.1596 35.22788,8.3941 12.16935,-0.7779 23.88146,-5.0195 33.72493,-11.925 14.31292,-10.0533 24.37967,-25.4574 27.92632,-42.45645 10e-6,-10e-6 10e-6,-10e-6 10e-6,-10e-6 3.50829,-17.00127 0.41749,-34.9867 -8.40571,-49.79404 -5.55985,-9.24397 -13.16904,-17.01972 -22.00682,-22.91873 9.31352,5.19608 17.69137,12.47158 24.20044,21.63078 10.318,14.68732 15.19654,33.49843 12.67123,52.47224 0,0 0,0 0,10e-6 -1.00293,7.32084 -3.0898,14.5085 -6.18573,21.3114 3.34337,-6.6665 5.71641,-13.78826 7.01408,-21.13311 3.28456,-19.03623 -0.79769,-38.45657 -10.87548,-54.19124 0,0 -1e-5,0 -1e-5,0 -11.6132,-17.85926 -29.96817,-29.80318 -49.79036,-33.95336 0,0 0,0 -1e-5,0 -19.76919,-4.09024 -40.13733,-0.70894 -57.22228,8.28484 -10.61166,5.57072 -19.9723,13.20581 -27.46051,22.28874 z"
       id="path4891"
       inkscape:path-effect="#path-effect5318;#path-effect5320"
       inkscape:original-d="m 117.04463,938.07752 c 0,0 4.09136,-18.99419 26.31472,-19.49927 22.22336,-0.50508 84.57798,4.62183 93.16427,25.32995 8.5863,20.70813 19.95795,82.5218 -17.92277,82.5218 -37.88072,0 -94.58668,-33.66682 -81.95977,-52.35464 12.62691,-18.68783 39.30929,-46.67623 61.02757,-24.95795 21.71827,21.71828 29.4826,67.17509 -7.89304,57.57869 -37.37565,-9.59649 -37.80893,-31.06962 -18.61603,-33.595"
       inkscape:connector-curvature="0"
       sodipodi:nodetypes="cssssssc" />
    <path
       style="fill:#3e9cff;fill-opacity:1;fill-rule:evenodd;stroke:none;filter:url(#filter5239)"
       d="m 6.7161008,1048.1023 c 0.0058,-0 0.011603,-0.01 0.017404,-0.015 0.016906,-0.014 0.033808,-0.029 0.050702,-0.043 0.066521,-0.056 0.1329402,-0.1123 0.1992443,-0.1682 6e-7,0 1.1e-6,0 1.7e-6,0 0.2597287,-0.2192 0.5191994,-0.4375 0.7783404,-0.6551 6e-7,0 1.2e-6,0 1.7e-6,0 0,0 0,0 0,0 0.9934805,-0.8343 1.9877105,-1.6651 2.982174,-2.4936 10e-7,0 10e-7,0 10e-7,0 3.642631,-3.0345 7.296704,-6.0472 10.959314,-9.0443 1e-6,0 1e-6,0 1e-6,0 6.345781,-5.1928 12.71825,-10.3412 19.118827,-15.4395 5.003414,-5.1378 10.036322,-10.2443 15.100801,-15.3163 0,0 10e-7,0 2e-6,0 12.936187,-12.95492 26.050662,-25.69398 39.556899,-37.92561 2e-6,0 4e-6,0 6e-6,0 6.27203,-5.67975 12.61292,-11.23692 19.09907,-16.55321 5.45469,-4.467 10.94152,-8.75144 16.61468,-12.5578 6.67772,-4.48178 13.40742,-8.82603 20.23545,-12.83305 -7.13497,3.52162 -14.2147,7.40568 -21.24461,11.43856 -5.35568,3.05888 -10.5916,6.51638 -15.77451,10.13884 4.92258,-3.9226 9.91346,-7.69395 15.07584,-11.10429 0,0 0,0 0,0 16.49531,-10.90221 33.42924,-21.01745 51.41289,-27.39853 16.33034,-5.87328 33.78587,-8.48465 51.49667,-10.05337 4.13326,-0.3584 8.27269,-0.65808 12.41771,-0.90559 -4.16525,0.0491 -8.32987,0.15083 -12.49421,0.31201 -14.81757,0.59749 -29.55414,1.92418 -43.88046,5.34154 13.95096,-4.53366 28.62996,-7.08089 43.42807,-8.85163 21.86609,-2.59488 43.94674,-3.56294 66.07398,-3.84056 0,0 1e-5,0 1e-5,0 2.86109,-0.0352 5.72077,-0.0566 8.5787,-0.0614 -2.85993,-0.16419 -5.72357,-0.31181 -8.59012,-0.44546 -18.13191,-0.8408 -36.29282,-1.21941 -54.4805,-0.60451 18.03069,-2.13933 36.2,-3.30214 54.37695,-3.99263 10.08574,-0.38315 20.18221,-0.59381 30.28417,-0.51683 0,0 0,0 0,0 7.24883,0.0546 14.52259,0.17715 21.77932,0.90573 -7.23328,-0.93058 -14.51737,-1.25826 -21.76525,-1.51564 -10.107,-0.36037 -20.22234,-0.43319 -30.3311,-0.33271 -1e-5,0 -1e-5,0 -1e-5,0 -13.0468,0.12878 -26.11026,0.5012 -39.15801,1.30591 12.93493,-2.32369 25.98597,-4.22355 39.05511,-5.87437 3.07045,-0.3883 6.14679,-0.76066 9.22974,-1.1138 -3.08588,0.0892 -6.16844,0.19774 -9.24757,0.32229 0,0 0,0 -10e-6,0 -22.36546,0.89854 -44.81105,2.52315 -67.0904,5.79366 -18.20784,2.64931 -36.55864,6.63152 -53.81319,13.9658 -17.06634,7.31732 -32.50247,17.39848 -47.13751,28.17554 14.25274,-11.3167 29.36288,-21.9836 46.39126,-30.01146 13.74959,-6.40664 28.3017,-10.70998 42.91215,-13.87076 -14.69644,2.62848 -29.41208,6.41173 -43.52043,12.37429 -19.25404,8.25983 -36.35717,19.82733 -52.418,31.92427 -5.98439,4.49127 -11.56079,9.31153 -16.92556,14.1929 0,1e-5 -10e-6,1e-5 -10e-6,1e-5 -6.411732,5.82717 -12.601788,11.83238 -18.663219,17.91061 -13.052252,13.08742 -25.610147,26.5863 -37.927841,40.24151 -3e-6,0 -6e-6,0 -9e-6,10e-6 -10.263326,11.37669 -20.36393,22.88919 -30.325979,34.51139 -3e-6,0 -6e-6,0 -8e-6,0 -3.0469,3.5547 -6.08231,7.1215 -9.101162,10.7045 -3e-6,0 -6e-6,0 -9e-6,0 -0.8241612,0.9781 -1.6478707,1.9584 -2.4702111,2.9414 -2.9e-6,0 -5.8e-6,0 -8.7e-6,0 -0.2144952,0.2565 -0.4293002,0.5135 -0.6442867,0.7714 -2.9e-6,0 -5.9e-6,0 -8.8e-6,0 -0.05486,0.066 -0.1098321,0.1317 -0.1649006,0.1979 -0.013986,0.017 -0.027978,0.034 -0.041975,0.05 -0.0048,0.01 -0.00961,0.012 -0.014412,0.017 z"
       id="path4897"
       inkscape:path-effect="#path-effect4899;#path-effect4901"
       inkscape:original-d="m 10.000001,1050.9336 c 0,0 76.82596,-89.24982 117.244389,-118.49963 39.50157,-28.58631 62.5839,-37.46065 104.06164,-42.80639 40.41841,-5.2092 97.4746,-5.80093 118.48476,-3.36221"
       inkscape:connector-curvature="0"
       sodipodi:nodetypes="cssc" />
    <path
       style="fill:#3e9cff;fill-opacity:1;fill-rule:evenodd;stroke:none;filter:url(#filter5231)"
       d="m 152.02988,913.03205 c -1.77775,3.19966 -3.24172,6.45431 -4.38221,9.71406 12.28907,-5.94731 26.45851,-7.83116 39.68499,-5.39229 9.4492,1.74074 18.47131,5.64807 26.03344,11.35344 0,0 0,0 1e-5,0 7.56153,5.70072 13.72044,13.22485 17.65685,21.67668 5.63996,12.06188 6.71453,26.23141 3.08734,38.79697 -0.34675,1.21009 -0.73761,2.40757 -1.1705,3.58987 0.45066,-1.17628 0.85973,-2.36899 1.225,-3.57563 3.81933,-12.52979 2.96771,-26.80419 -2.56713,-39.09629 0,0 -1e-5,-10e-6 -1e-5,-10e-6 -3.86355,-8.60957 -9.99866,-16.33494 -17.61925,-22.24512 -7.01875,-5.44631 -15.33029,-9.36896 -24.1372,-11.44691 8.84213,1.89969 17.26413,5.65872 24.45491,11.00402 7.80745,5.80111 14.19245,13.48869 18.32001,22.1828 0,10e-6 0,10e-6 0,10e-6 5.91115,12.42101 7.13477,27.02371 3.46802,40.10329 -1.27239,4.56007 -3.14243,8.95034 -5.5136,13.04686 2.72301,-3.90089 4.99264,-8.18217 6.6818,-12.74144 1.44714,-3.89647 2.46983,-8.00134 3.05016,-12.21427 -0.12783,4.23092 -0.70219,8.44928 -1.73582,12.55789 -3.46431,13.79202 -12.09833,26.32342 -23.85139,34.50532 12.03908,-7.7629 21.26985,-20.0913 25.32401,-34.12033 0.47908,-1.6584 0.88534,-3.33903 1.21896,-5.03574 -0.0665,1.74219 -0.20955,3.49128 -0.43222,5.24143 -0.6088,4.77239 -1.80792,9.53554 -3.56611,14.15944 2.30928,-4.3307 4.12581,-8.92641 5.37774,-13.68582 0,0 0,0 0,0 3.87073,-14.76728 2.23855,-30.84349 -4.53017,-44.54062 -4.73251,-9.55599 -11.85675,-17.86103 -20.50055,-24.074 -5.09345,-3.65922 -10.68977,-6.58628 -16.57379,-8.71921 5.95485,1.93683 11.67482,4.687 16.93833,8.21105 8.93246,5.9843 16.46808,14.17838 21.64697,23.83264 1e-5,10e-6 1e-5,10e-6 1e-5,10e-6 5.77639,10.80309 8.44087,23.26942 7.63649,35.66743 1.06914,-12.37272 -1.31593,-24.96148 -6.92159,-36.02206 -5.02669,-9.88104 -12.48696,-18.38723 -21.48001,-24.70732 -8.99257,-6.31445 -19.40872,-10.41433 -30.18664,-12.03266 -1e-5,0 -1e-5,0 -1e-5,0 -12.34352,-1.85122 -25.06081,-0.41964 -36.63684,4.00651 z"
       id="path4903"
       inkscape:path-effect="#path-effect4907;#path-effect4905"
       inkscape:original-d="m 146.47212,920.45061 c 0,0 18.51466,-10.60744 41.41625,-6.56599 25.75889,4.54569 37.14697,15.23431 47.47717,34.34519 10.10153,18.68783 -20.20304,56.06349 -20.20304,77.27669"
       inkscape:connector-curvature="0"
       sodipodi:nodetypes="cssc" />
    <path
       style="fill:#3e9cff;fill-opacity:1;fill-rule:evenodd;stroke:none;filter:url(#filter5235)"
       d="m 79.05459,966.4645 c -1.59146,5.75121 -3.502114,11.48974 -5.737165,17.18 8.435552,-10.22424 15.798174,-21.44545 21.880969,-33.41701 9.195506,-18.01848 15.508816,-38.35699 14.692436,-59.62535 -0.0922,18.60038 -5.61158,36.00818 -13.560142,51.66351 7.534652,-16.92304 12.208852,-35.50552 10.710482,-54.61233 -0.91464,-12.07139 -4.74927,-24.51798 -12.764672,-34.60007 4.409101,7.20632 6.734682,15.00313 7.643002,22.73822 -2.792336,-9.10414 -7.53765,-17.60312 -14.685239,-24.0097 -6.488136,-5.77814 -14.752178,-9.54007 -23.416216,-10.63173 8.632686,1.35853 16.699897,5.367 22.88497,11.23804 8.825836,8.39901 13.480255,20.06937 15.243655,31.88358 -2.482374,-10.23901 -7.162421,-19.96032 -14.32835,-26.85909 7.64136,8.19534 11.795608,19.6066 13.36294,31.05856 1.67957,12.4814 0.37722,25.18442 -2.824506,37.53826 2.530326,-12.52518 3.117406,-25.19311 0.771151,-37.26116 -0.431599,-2.16804 -0.955873,-4.32102 -1.575795,-6.43386 0.515641,2.13719 0.933476,4.30409 1.259749,6.47651 0,10e-6 0,10e-6 0,10e-6 2.836621,19.49034 -1.967886,39.85114 -9.94361,58.58868 -10e-7,0 -10e-7,0 -10e-7,0 -0.234354,0.54513 -0.471478,1.08909 -0.711356,1.63186 0.209978,-0.55617 0.417065,-1.11323 0.621251,-1.67115 2.410143,-6.66267 4.412107,-13.47716 5.834858,-20.3084 -1.596964,6.7839 -3.766284,13.52183 -6.329383,20.09273 -2.60864,6.60657 -5.625615,13.06961 -9.029028,19.33989 z"
       id="path4909"
       inkscape:path-effect="#path-effect4911;#path-effect4913"
       inkscape:original-d="m 73.236061,983.58515 c 0,0 14.64721,-21.2132 19.69797,-34.34519 5.05077,-13.13198 15.152289,-42.93148 10.606609,-61.11423 -4.545689,-18.18274 -7.071069,-28.78935 -17.172599,-35.35534 -10.10152,-6.56599 -22.72843,-10.10152 -22.72843,-10.10152"
       inkscape:connector-curvature="0"
       sodipodi:nodetypes="csssc" />
  </g>
</svg>
